<?xml version="1.0" encoding="utf-8"?>
<!-- Generator: Adobe Illustrator 23.0.0, SVG Export Plug-In . SVG Version: 6.00 Build 0)  -->
<svg version="1.1" id="Layer_1" xmlns="http://www.w3.org/2000/svg" xmlns:xlink="http://www.w3.org/1999/xlink" x="0px" y="0px"
	 viewBox="0 0 372.76 94.64" style="enable-background:new 0 0 372.76 94.64;" xml:space="preserve">
<style type="text/css">
	.st0{enable-background:new    ;}
	.st1{fill:#A940A2;}
</style>
<g class="st0">
	<path class="st1" d="M25.64,34.91l7,9.64h-4.17L22,35.29h-0.62v9.26h-3.41V21.94h4c2.99,0,5.15,0.56,6.47,1.68
		c1.46,1.25,2.2,2.9,2.2,4.95c0,1.6-0.46,2.98-1.38,4.13S27.14,34.59,25.64,34.91z M21.39,32.32h1.08c3.23,0,4.85-1.24,4.85-3.71
		c0-2.31-1.57-3.47-4.72-3.47h-1.22V32.32z"/>
	<path class="st1" d="M47.92,38.2H37.69c0.09,1.17,0.47,2.1,1.14,2.8c0.67,0.68,1.54,1.03,2.59,1.03c0.82,0,1.5-0.2,2.04-0.59
		c0.53-0.39,1.13-1.11,1.8-2.17l2.78,1.55c-0.43,0.73-0.88,1.36-1.36,1.88c-0.48,0.52-0.99,0.95-1.54,1.29
		c-0.55,0.34-1.14,0.58-1.77,0.74s-1.32,0.23-2.07,0.23c-2.13,0-3.84-0.68-5.13-2.05c-1.29-1.38-1.93-3.2-1.93-5.48
		c0-2.26,0.62-4.08,1.88-5.48c1.26-1.38,2.93-2.07,5.01-2.07c2.1,0,3.76,0.67,4.98,2.01c1.21,1.33,1.82,3.17,1.82,5.52L47.92,38.2z
		 M44.53,35.5c-0.46-1.76-1.57-2.64-3.33-2.64c-0.4,0-0.78,0.06-1.13,0.18s-0.67,0.3-0.96,0.53s-0.53,0.5-0.74,0.83
		s-0.36,0.69-0.47,1.1H44.53z"/>
	<path class="st1" d="M51.52,30.29h3.31v1.32c1.15-1.14,2.45-1.71,3.9-1.71c1.66,0,2.95,0.52,3.88,1.57c0.8,0.89,1.2,2.34,1.2,4.35
		v8.75H60.5v-7.97c0-1.41-0.2-2.38-0.59-2.92c-0.38-0.55-1.07-0.82-2.08-0.82c-1.09,0-1.87,0.36-2.33,1.08
		c-0.45,0.71-0.67,1.96-0.67,3.74v6.88h-3.31V30.29z"/>
	<path class="st1" d="M71.37,33.36v11.19h-3.3V33.36h-1.41v-3.08h1.41v-5.23h3.3v5.23h2.56v3.08H71.37z"/>
	<path class="st1" d="M85.43,30.29h3.3v1.27c0.61-0.63,1.14-1.07,1.61-1.3c0.48-0.24,1.04-0.37,1.7-0.37c0.87,0,1.78,0.28,2.72,0.85
		l-1.51,3.02c-0.62-0.45-1.24-0.67-1.83-0.67c-1.8,0-2.7,1.36-2.7,4.07v7.4h-3.3V30.29z"/>
	<path class="st1" d="M95.71,37.32c0-2.06,0.74-3.81,2.21-5.26s3.27-2.17,5.39-2.17c2.13,0,3.94,0.73,5.42,2.18
		c1.46,1.46,2.2,3.24,2.2,5.36c0,2.14-0.74,3.93-2.21,5.38c-1.48,1.44-3.31,2.15-5.46,2.15c-2.14,0-3.93-0.73-5.38-2.2
		C96.44,41.32,95.71,39.5,95.71,37.32z M99.08,37.38c0,1.43,0.38,2.55,1.14,3.38c0.78,0.84,1.81,1.26,3.09,1.26
		c1.29,0,2.32-0.42,3.09-1.25s1.16-1.94,1.16-3.33s-0.39-2.5-1.16-3.33c-0.78-0.84-1.81-1.26-3.09-1.26c-1.26,0-2.28,0.42-3.06,1.26
		S99.08,36.05,99.08,37.38z"/>
	<path class="st1" d="M113.75,37.32c0-2.06,0.74-3.81,2.21-5.26s3.27-2.17,5.39-2.17c2.13,0,3.94,0.73,5.42,2.18
		c1.46,1.46,2.2,3.24,2.2,5.36c0,2.14-0.74,3.93-2.21,5.38c-1.48,1.44-3.31,2.15-5.46,2.15c-2.14,0-3.93-0.73-5.38-2.2
		C114.47,41.32,113.75,39.5,113.75,37.32z M117.12,37.38c0,1.43,0.38,2.55,1.14,3.38c0.78,0.84,1.81,1.26,3.09,1.26
		c1.29,0,2.32-0.42,3.09-1.25s1.16-1.94,1.16-3.33s-0.39-2.5-1.16-3.33c-0.78-0.84-1.81-1.26-3.09-1.26c-1.26,0-2.28,0.42-3.06,1.26
		S117.12,36.05,117.12,37.38z"/>
	<path class="st1" d="M132.45,30.29h3.3v1.32c0.63-0.66,1.18-1.11,1.63-1.35c0.48-0.24,1.08-0.37,1.8-0.37
		c1.61,0,2.89,0.7,3.82,2.11c1.04-1.41,2.44-2.11,4.2-2.11c3.21,0,4.82,1.95,4.82,5.84v8.82h-3.31v-7.92c0-1.37-0.17-2.33-0.5-2.9
		c-0.34-0.58-0.9-0.86-1.68-0.86c-0.91,0-1.57,0.34-1.98,1.03s-0.62,1.78-0.62,3.3v7.37h-3.31v-7.88c0-2.54-0.73-3.81-2.2-3.81
		c-0.93,0-1.6,0.35-2.03,1.04s-0.64,1.79-0.64,3.28v7.37h-3.3V30.29z"/>
	<path class="st1" d="M164.47,32.72l-2.72,1.45c-0.43-0.88-0.96-1.32-1.6-1.32c-0.3,0-0.56,0.1-0.78,0.3
		c-0.21,0.2-0.32,0.46-0.32,0.77c0,0.55,0.63,1.09,1.9,1.63c1.75,0.75,2.92,1.45,3.53,2.08s0.91,1.49,0.91,2.56
		c0,1.38-0.51,2.53-1.52,3.46c-0.99,0.88-2.18,1.32-3.57,1.32c-2.39,0-4.09-1.17-5.08-3.5l2.81-1.3c0.39,0.68,0.69,1.12,0.89,1.3
		c0.4,0.37,0.88,0.56,1.44,0.56c1.11,0,1.67-0.51,1.67-1.52c0-0.59-0.43-1.13-1.29-1.64c-0.33-0.17-0.66-0.33-1-0.48
		s-0.67-0.32-1.01-0.48c-0.96-0.47-1.63-0.94-2.02-1.41c-0.5-0.6-0.75-1.36-0.75-2.3c0-1.24,0.42-2.27,1.27-3.08
		c0.87-0.81,1.92-1.22,3.16-1.22C162.23,29.89,163.59,30.83,164.47,32.72z"/>
	<path class="st1" d="M188.13,30.29h3.31v14.27h-3.31v-1.49c-1.36,1.27-2.82,1.9-4.38,1.9c-1.97,0-3.6-0.71-4.89-2.14
		c-1.28-1.46-1.92-3.27-1.92-5.45c0-2.14,0.64-3.92,1.92-5.35s2.88-2.14,4.8-2.14c1.66,0,3.15,0.68,4.47,2.05V30.29z M180.31,37.38
		c0,1.37,0.37,2.48,1.1,3.34c0.75,0.87,1.7,1.3,2.84,1.3c1.22,0,2.21-0.42,2.96-1.26c0.75-0.87,1.13-1.97,1.13-3.31
		s-0.38-2.44-1.13-3.31c-0.75-0.85-1.73-1.27-2.93-1.27c-1.13,0-2.08,0.43-2.84,1.29C180.69,35.02,180.31,36.1,180.31,37.38z"/>
	<path class="st1" d="M195.6,30.29h3.31v1.32c1.15-1.14,2.45-1.71,3.9-1.71c1.66,0,2.95,0.52,3.88,1.57c0.8,0.89,1.2,2.34,1.2,4.35
		v8.75h-3.31v-7.97c0-1.41-0.2-2.38-0.59-2.92c-0.38-0.55-1.07-0.82-2.08-0.82c-1.09,0-1.87,0.36-2.33,1.08
		c-0.45,0.71-0.67,1.96-0.67,3.74v6.88h-3.31V30.29z"/>
	<path class="st1" d="M222.57,19.81h3.31v24.74h-3.31v-1.49c-1.3,1.27-2.77,1.9-4.41,1.9c-1.95,0-3.57-0.71-4.86-2.14
		c-1.28-1.46-1.92-3.27-1.92-5.45c0-2.13,0.64-3.91,1.92-5.33c1.27-1.44,2.87-2.15,4.79-2.15c1.67,0,3.16,0.68,4.48,2.05V19.81z
		 M214.75,37.38c0,1.37,0.37,2.48,1.1,3.34c0.75,0.87,1.7,1.3,2.84,1.3c1.22,0,2.21-0.42,2.96-1.26c0.75-0.87,1.13-1.97,1.13-3.31
		s-0.38-2.44-1.13-3.31c-0.75-0.85-1.73-1.27-2.93-1.27c-1.13,0-2.08,0.43-2.84,1.29C215.12,35.02,214.75,36.1,214.75,37.38z"/>
	<path class="st1" d="M242.71,33.36v11.19h-3.31V33.36h-1.17v-3.08h1.17v-5.51c0-1.8,0.31-3.07,0.94-3.81
		c0.86-1.04,2.11-1.55,3.75-1.55c0.59,0,1.32,0.17,2.21,0.51v3.37l-0.34-0.18c-0.71-0.36-1.3-0.54-1.76-0.54
		c-0.59,0-0.98,0.21-1.19,0.63c-0.21,0.41-0.31,1.2-0.31,2.37v4.7h3.59v3.08H242.71z"/>
	<path class="st1" d="M248.34,24.35c0-0.58,0.21-1.07,0.63-1.49s0.92-0.63,1.51-0.63c0.6,0,1.1,0.21,1.52,0.63
		c0.42,0.41,0.63,0.91,0.63,1.51s-0.21,1.1-0.63,1.52c-0.41,0.42-0.91,0.63-1.51,0.63s-1.1-0.21-1.52-0.63
		S248.34,24.96,248.34,24.35z M252.13,30.29v14.27h-3.3V30.29H252.13z"/>
	<path class="st1" d="M256.31,30.29h3.31v1.32c1.15-1.14,2.45-1.71,3.9-1.71c1.66,0,2.95,0.52,3.88,1.57c0.8,0.89,1.2,2.34,1.2,4.35
		v8.75h-3.31v-7.97c0-1.41-0.2-2.38-0.59-2.92c-0.38-0.55-1.07-0.82-2.08-0.82c-1.09,0-1.87,0.36-2.33,1.08
		c-0.45,0.71-0.67,1.96-0.67,3.74v6.88h-3.31V30.29z"/>
	<path class="st1" d="M283.27,19.81h3.31v24.74h-3.31v-1.49c-1.3,1.27-2.77,1.9-4.41,1.9c-1.95,0-3.57-0.71-4.86-2.14
		c-1.28-1.46-1.92-3.27-1.92-5.45c0-2.13,0.64-3.91,1.92-5.33c1.27-1.44,2.87-2.15,4.79-2.15c1.67,0,3.16,0.68,4.48,2.05V19.81z
		 M275.45,37.38c0,1.37,0.37,2.48,1.1,3.34c0.75,0.87,1.7,1.3,2.84,1.3c1.22,0,2.21-0.42,2.96-1.26c0.75-0.87,1.13-1.97,1.13-3.31
		s-0.38-2.44-1.13-3.31c-0.75-0.85-1.73-1.27-2.93-1.27c-1.13,0-2.08,0.43-2.84,1.29C275.83,35.02,275.45,36.1,275.45,37.38z"/>
</g>
<g class="st0">
	<path class="st1" d="M17.35,59.29h3.3v1.27c0.61-0.63,1.14-1.07,1.61-1.3c0.48-0.24,1.04-0.37,1.7-0.37c0.87,0,1.78,0.28,2.72,0.85
		l-1.51,3.02c-0.62-0.45-1.24-0.67-1.83-0.67c-1.8,0-2.7,1.36-2.7,4.07v7.4h-3.3V59.29z"/>
	<path class="st1" d="M27.63,66.32c0-2.06,0.74-3.81,2.21-5.26s3.27-2.17,5.39-2.17c2.13,0,3.94,0.73,5.42,2.18
		c1.46,1.46,2.2,3.24,2.2,5.36c0,2.14-0.74,3.93-2.21,5.38c-1.48,1.44-3.31,2.15-5.46,2.15c-2.14,0-3.93-0.73-5.38-2.2
		C28.35,70.32,27.63,68.5,27.63,66.32z M31,66.38c0,1.43,0.38,2.55,1.14,3.38c0.78,0.84,1.81,1.26,3.09,1.26
		c1.29,0,2.32-0.42,3.09-1.25s1.16-1.94,1.16-3.33s-0.39-2.5-1.16-3.33c-0.78-0.84-1.81-1.26-3.09-1.26c-1.26,0-2.28,0.42-3.06,1.26
		S31,65.05,31,66.38z"/>
	<path class="st1" d="M45.66,66.32c0-2.06,0.74-3.81,2.21-5.26s3.27-2.17,5.39-2.17c2.13,0,3.94,0.73,5.42,2.18
		c1.46,1.46,2.2,3.24,2.2,5.36c0,2.14-0.74,3.93-2.21,5.38c-1.48,1.44-3.31,2.15-5.46,2.15c-2.14,0-3.93-0.73-5.38-2.2
		C46.38,70.32,45.66,68.5,45.66,66.32z M49.03,66.38c0,1.43,0.38,2.55,1.14,3.38c0.78,0.84,1.81,1.26,3.09,1.26
		c1.29,0,2.32-0.42,3.09-1.25s1.16-1.94,1.16-3.33s-0.39-2.5-1.16-3.33c-0.78-0.84-1.81-1.26-3.09-1.26c-1.26,0-2.28,0.42-3.06,1.26
		S49.03,65.05,49.03,66.38z"/>
	<path class="st1" d="M64.37,59.29h3.3v1.32c0.63-0.66,1.18-1.11,1.63-1.35c0.48-0.24,1.08-0.37,1.8-0.37c1.61,0,2.89,0.7,3.82,2.11
		c1.04-1.41,2.44-2.11,4.2-2.11c3.21,0,4.82,1.95,4.82,5.84v8.82h-3.31v-7.92c0-1.37-0.17-2.33-0.5-2.9
		c-0.34-0.58-0.9-0.86-1.68-0.86c-0.91,0-1.57,0.34-1.98,1.03s-0.62,1.78-0.62,3.3v7.37h-3.31v-7.88c0-2.54-0.73-3.81-2.2-3.81
		c-0.93,0-1.6,0.35-2.03,1.04s-0.64,1.79-0.64,3.28v7.37h-3.3V59.29z"/>
	<path class="st1" d="M88.1,59.29h3.3v1.32c0.63-0.66,1.18-1.11,1.63-1.35c0.48-0.24,1.08-0.37,1.8-0.37c1.61,0,2.89,0.7,3.82,2.11
		c1.04-1.41,2.44-2.11,4.2-2.11c3.21,0,4.82,1.95,4.82,5.84v8.82h-3.31v-7.92c0-1.37-0.17-2.33-0.5-2.9
		c-0.34-0.58-0.9-0.86-1.68-0.86c-0.91,0-1.57,0.34-1.98,1.03s-0.62,1.78-0.62,3.3v7.37h-3.31v-7.88c0-2.54-0.73-3.81-2.2-3.81
		c-0.93,0-1.6,0.35-2.03,1.04s-0.64,1.79-0.64,3.28v7.37h-3.3V59.29z"/>
	<path class="st1" d="M122.35,59.29h3.31v14.27h-3.31v-1.49c-1.36,1.27-2.82,1.9-4.38,1.9c-1.97,0-3.6-0.71-4.89-2.14
		c-1.28-1.46-1.92-3.27-1.92-5.45c0-2.14,0.64-3.92,1.92-5.35s2.88-2.14,4.8-2.14c1.66,0,3.15,0.68,4.47,2.05V59.29z M114.52,66.38
		c0,1.37,0.37,2.48,1.1,3.34c0.75,0.87,1.7,1.3,2.84,1.3c1.22,0,2.21-0.42,2.96-1.26c0.75-0.87,1.13-1.97,1.13-3.31
		s-0.38-2.44-1.13-3.31c-0.75-0.85-1.73-1.27-2.93-1.27c-1.13,0-2.08,0.43-2.84,1.29C114.9,64.02,114.52,65.1,114.52,66.38z"/>
	<path class="st1" d="M133.21,62.36v11.19h-3.3V62.36h-1.41v-3.08h1.41v-5.23h3.3v5.23h2.56v3.08H133.21z"/>
	<path class="st1" d="M151.28,67.2h-10.22c0.09,1.17,0.47,2.1,1.14,2.8c0.67,0.68,1.54,1.03,2.59,1.03c0.82,0,1.5-0.2,2.04-0.59
		c0.53-0.39,1.13-1.11,1.8-2.17l2.78,1.55c-0.43,0.73-0.88,1.36-1.36,1.88c-0.48,0.52-0.99,0.95-1.54,1.29
		c-0.55,0.34-1.14,0.58-1.77,0.74s-1.32,0.23-2.07,0.23c-2.13,0-3.84-0.68-5.13-2.05c-1.29-1.38-1.93-3.2-1.93-5.48
		c0-2.26,0.62-4.08,1.88-5.48c1.26-1.38,2.93-2.07,5.01-2.07c2.1,0,3.76,0.67,4.98,2.01c1.21,1.33,1.82,3.17,1.82,5.52L151.28,67.2z
		 M147.89,64.5c-0.46-1.76-1.57-2.64-3.33-2.64c-0.4,0-0.78,0.06-1.13,0.18s-0.67,0.3-0.96,0.53s-0.53,0.5-0.74,0.83
		s-0.36,0.69-0.47,1.1H147.89z"/>
	<path class="st1" d="M163.17,61.72l-2.72,1.45c-0.43-0.88-0.96-1.32-1.6-1.32c-0.3,0-0.56,0.1-0.78,0.3
		c-0.21,0.2-0.32,0.46-0.32,0.77c0,0.55,0.63,1.09,1.9,1.63c1.75,0.75,2.92,1.45,3.53,2.08s0.91,1.49,0.91,2.56
		c0,1.38-0.51,2.53-1.52,3.46c-0.99,0.88-2.18,1.32-3.57,1.32c-2.39,0-4.09-1.17-5.08-3.5l2.81-1.3c0.39,0.68,0.69,1.12,0.89,1.3
		c0.4,0.37,0.88,0.56,1.44,0.56c1.11,0,1.67-0.51,1.67-1.52c0-0.59-0.43-1.13-1.29-1.64c-0.33-0.17-0.66-0.33-1-0.48
		s-0.67-0.32-1.01-0.48c-0.96-0.47-1.63-0.94-2.02-1.41c-0.5-0.6-0.75-1.36-0.75-2.3c0-1.24,0.42-2.27,1.27-3.08
		c0.87-0.81,1.92-1.22,3.16-1.22C160.92,58.89,162.28,59.83,163.17,61.72z"/>
	<path class="st1" d="M175.81,53.35c0-0.58,0.21-1.07,0.63-1.49s0.92-0.63,1.51-0.63c0.6,0,1.1,0.21,1.52,0.63
		c0.42,0.41,0.63,0.91,0.63,1.51s-0.21,1.1-0.63,1.52c-0.41,0.42-0.91,0.63-1.51,0.63s-1.1-0.21-1.52-0.63
		S175.81,53.96,175.81,53.35z M179.61,59.29v14.27h-3.3V59.29H179.61z"/>
	<path class="st1" d="M183.78,59.29h3.31v1.32c1.15-1.14,2.45-1.71,3.9-1.71c1.66,0,2.95,0.52,3.88,1.57c0.8,0.89,1.2,2.34,1.2,4.35
		v8.75h-3.31v-7.97c0-1.41-0.2-2.38-0.59-2.92c-0.38-0.55-1.07-0.82-2.08-0.82c-1.09,0-1.87,0.36-2.33,1.08
		c-0.45,0.71-0.67,1.96-0.67,3.74v6.88h-3.31V59.29z"/>
	<path class="st1" d="M210.12,73.55V49.4l16.49,17.26V50.94h3.41v23.99l-16.49-17.21v15.83H210.12z"/>
	<path class="st1" d="M248.15,67.2h-10.22c0.09,1.17,0.47,2.1,1.14,2.8c0.67,0.68,1.54,1.03,2.59,1.03c0.82,0,1.5-0.2,2.04-0.59
		c0.53-0.39,1.13-1.11,1.8-2.17l2.78,1.55c-0.43,0.73-0.88,1.36-1.36,1.88c-0.48,0.52-0.99,0.95-1.54,1.29
		c-0.55,0.34-1.14,0.58-1.77,0.74s-1.32,0.23-2.07,0.23c-2.13,0-3.84-0.68-5.13-2.05c-1.29-1.38-1.93-3.2-1.93-5.48
		c0-2.26,0.62-4.08,1.88-5.48c1.26-1.38,2.93-2.07,5.01-2.07c2.1,0,3.76,0.67,4.98,2.01c1.21,1.33,1.82,3.17,1.82,5.52L248.15,67.2z
		 M244.76,64.5c-0.46-1.76-1.57-2.64-3.33-2.64c-0.4,0-0.78,0.06-1.13,0.18s-0.67,0.3-0.96,0.53s-0.54,0.5-0.74,0.83
		s-0.36,0.69-0.47,1.1H244.76z"/>
	<path class="st1" d="M253.08,59.29l3.74,8.14l4.03-9.45l4.06,9.45l3.69-8.14h3.69l-7.47,15.34l-3.97-9.18l-4.01,9.18l-7.46-15.34
		H253.08z"/>
	<path class="st1" d="M288.97,63.78l-7.38-12.85h3.93l5.17,9.04l5.19-9.04h3.93l-7.41,12.85v9.77h-3.41V63.78z"/>
	<path class="st1" d="M299.06,66.32c0-2.06,0.74-3.81,2.21-5.26s3.27-2.17,5.39-2.17c2.13,0,3.94,0.73,5.42,2.18
		c1.46,1.46,2.2,3.24,2.2,5.36c0,2.14-0.74,3.93-2.21,5.38c-1.48,1.44-3.31,2.15-5.46,2.15c-2.14,0-3.93-0.73-5.38-2.2
		C299.79,70.32,299.06,68.5,299.06,66.32z M302.43,66.38c0,1.43,0.38,2.55,1.14,3.38c0.78,0.84,1.81,1.26,3.09,1.26
		c1.29,0,2.32-0.42,3.09-1.25s1.16-1.94,1.16-3.33s-0.39-2.5-1.16-3.33c-0.78-0.84-1.81-1.26-3.09-1.26c-1.26,0-2.28,0.42-3.06,1.26
		S302.43,65.05,302.43,66.38z"/>
	<path class="st1" d="M317.77,59.29h3.3v1.27c0.61-0.63,1.14-1.07,1.61-1.3c0.48-0.24,1.04-0.37,1.7-0.37
		c0.87,0,1.78,0.28,2.72,0.85l-1.51,3.02c-0.62-0.45-1.24-0.67-1.83-0.67c-1.8,0-2.7,1.36-2.7,4.07v7.4h-3.3V59.29z"/>
	<path class="st1" d="M332.74,48.81V63.9l4.64-4.61h4.42l-6.2,5.99l6.65,8.28h-4.28l-4.72-6.02l-0.53,0.53v5.49h-3.3V48.81H332.74z"
		/>
	<path class="st1" d="M345.25,71.91c0-0.55,0.2-1.02,0.6-1.42s0.88-0.6,1.44-0.6s1.04,0.2,1.44,0.6s0.6,0.88,0.6,1.44
		c0,0.57-0.2,1.05-0.6,1.45c-0.39,0.39-0.87,0.59-1.44,0.59c-0.58,0-1.06-0.2-1.45-0.59S345.25,72.5,345.25,71.91z M345.63,68.51
		V50.94h3.31v17.58H345.63z"/>
</g>
</svg>
