<?xml version="1.0" encoding="utf-8"?>
<!-- Generator: Adobe Illustrator 23.0.0, SVG Export Plug-In . SVG Version: 6.00 Build 0)  -->
<svg version="1.1" id="Layer_1" xmlns="http://www.w3.org/2000/svg" xmlns:xlink="http://www.w3.org/1999/xlink" x="0px" y="0px"
	 viewBox="0 0 1093.11 412.95" style="enable-background:new 0 0 1093.11 412.95;" xml:space="preserve">
<style type="text/css">
	.st0{fill:#ECECFA;}
	.st1{fill:#DCDCF4;}
	.st2{clip-path:url(#SVGID_2_);}
	.st3{fill:url(#SVGID_3_);}
	.st4{fill:url(#SVGID_4_);}
	.st5{fill:url(#SVGID_5_);}
	.st6{fill:url(#SVGID_6_);}
	.st7{fill:#9344B3;}
	.st8{fill-rule:evenodd;clip-rule:evenodd;fill:#9344B3;}
	.st9{fill:#FED33D;}
	.st10{fill:#7E56B7;}
	.st11{fill:url(#SVGID_7_);}
	.st12{fill:url(#SVGID_8_);}
	.st13{fill:url(#SVGID_9_);}
	.st14{fill:url(#SVGID_10_);}
	.st15{fill:#899CBD;}
	.st16{fill:url(#SVGID_11_);}
	.st17{fill:#8738E8;}
	.st18{fill:#141D75;}
	.st19{fill:#F0D5F2;}
	.st20{fill:#A940A2;}
	.st21{fill:#9E8582;}
	.st22{fill:#E4C3C3;}
	.st23{fill:#F3D4FE;}
	.st24{fill:#C29BEC;}
	.st25{fill:#D474D8;}
	.st26{fill:#A33EA0;}
	.st27{fill:#C8B4E9;}
	.st28{fill:#F2CA72;}
	.st29{fill:#EDB3FF;}
	.st30{fill:#6872BC;}
	.st31{fill:#162082;}
	.st32{fill:#0D0342;}
	.st33{fill:#360007;}
	.st34{fill:#F7B699;}
	.st35{fill:#B388D2;}
	.st36{fill:#CB6EC1;}
	.st37{fill:#FFCDCC;}
	.st38{fill:#F9F2E5;}
	.st39{fill:#A06AC7;}
	.st40{fill:#7D2AEA;}
	.st41{opacity:0.58;fill:url(#SVGID_12_);enable-background:new    ;}
	.st42{fill:#3744C4;}
	.st43{fill:#FCEEE8;}
	.st44{fill:#6068B5;}
</style>
<path class="st0" d="M1093.11,303.15c0,0-69.44-2.12-87.58-4.19c-40.15-4.58-80.76-5.82-120.62-12.29
	c-92.77-15.06-186.05-27.25-279.67-35.56c-107.44-9.53-215.99-14.66-323.74-7.24c-57.84,3.98-115.18,14.08-171.32,28.4
	c-16.85,4.3-51.48,16.2-51.48,16.2S16.85,304.2,0,303.15c2.02,1.05,0,109.8,0,109.8c0.02,0,1093.11,0,1093.11,0V303.15z"/>
<g>
	<g>
		<path class="st1" d="M711.57,289.66c6.57-1.45,13.6-2.11,21.89-1.22c9.24,0.99,18.97,5.33,25.39,9.63
			c2.38,1.6,4.54,3.39,5.28,5.22c1.71,4.24-5.04,4.68-11.3,3.97c-10.94-1.24-20.73-5.78-31.54-8.06c-4.9-1.03-16.2-1.58-18.04-5.28
			c-0.76-1.54,1.55-2.5,3.71-3.11C708.47,290.39,710.01,290,711.57,289.66z"/>
		<path class="st0" d="M552.65,168.8C537.9,101.1,612.93,43.12,693.87,28.35c53.16-9.7,114.87-7.38,165.45,8.21
			c28.49,8.78,60.85,24.04,74.74,45.99c9.25,14.62-2.31,23.56-18.35,30.73c-27.86,12.44-52.51,25.02-83.85,31.62
			c-35.05,7.39-71.28,12-105.47,21.72c-29.64,8.43-57.06,20.95-80.3,36.68c-9.83,6.65-19.52,14.14-32.41,16.98
			c-31.78,7-49.32-20.38-56.59-37.54C555.14,178.14,553.67,173.48,552.65,168.8z"/>
		<g>
			<g>
				<g>
					<defs>
						<path id="SVGID_1_" d="M842.84,39.04c63.78,9.17,134.66,42.53,139.68,98.69c3.04,33.96-19.67,63.05-56.82,79.35
							c-39.76,17.45-87.12,20.66-131.64,17.01c-37.47-3.07-75.18-10.57-107.38-26.47c-23.73-11.72-43.49-28.16-54.55-48.58
							c-8.11-14.98-9.17-33.99-6.56-50.02c8.87-54.52,82.92-71.6,142.79-73.76C793.21,34.37,818.32,35.52,842.84,39.04z"/>
					</defs>
					<clipPath id="SVGID_2_">
						<use xlink:href="#SVGID_1_"  style="overflow:visible;"/>
					</clipPath>
					<g class="st2">
						
							<linearGradient id="SVGID_3_" gradientUnits="userSpaceOnUse" x1="722.7406" y1="274.679" x2="823.6224" y2="589.6145" gradientTransform="matrix(0.8223 0 0 1 139.8039 -324.338)">
							<stop  offset="2.702700e-03" style="stop-color:#B752F1"/>
							<stop  offset="1" style="stop-color:#BDC6FF"/>
						</linearGradient>
						<rect x="546.04" y="-17.81" class="st3" width="450.4" height="218.2"/>
						
							<linearGradient id="SVGID_4_" gradientUnits="userSpaceOnUse" x1="903.78" y1="488.8797" x2="903.78" y2="298.1918" gradientTransform="matrix(1 0 0 1 0 -324)">
							<stop  offset="0" style="stop-color:#E5D9B5"/>
							<stop  offset="0.5" style="stop-color:#D4B9EB"/>
							<stop  offset="0.7254" style="stop-color:#C6A2E4"/>
							<stop  offset="1" style="stop-color:#B88BDD"/>
						</linearGradient>
						<polygon class="st4" points="963.32,175.86 844.28,175.88 844.24,-1.34 844.24,-19.26 963.26,-19.28 963.26,-17.05 
							963.27,-1.34 						"/>
						
							<linearGradient id="SVGID_5_" gradientUnits="userSpaceOnUse" x1="778.54" y1="489.0657" x2="778.54" y2="298.3777" gradientTransform="matrix(1 0 0 1 0 -324)">
							<stop  offset="0" style="stop-color:#E5D9B5"/>
							<stop  offset="0.5" style="stop-color:#D4B9EB"/>
							<stop  offset="0.7254" style="stop-color:#C6A2E4"/>
							<stop  offset="1" style="stop-color:#B88BDD"/>
						</linearGradient>
						<polygon class="st5" points="831.78,176.04 725.35,176.07 725.31,-1.15 725.3,-16.87 725.3,-19.07 831.73,-19.1 
							831.73,-16.87 831.74,-1.15 						"/>
						
							<linearGradient id="SVGID_6_" gradientUnits="userSpaceOnUse" x1="660.18" y1="488.8797" x2="660.18" y2="298.1918" gradientTransform="matrix(1 0 0 1 0 -324)">
							<stop  offset="0" style="stop-color:#E5D9B5"/>
							<stop  offset="0.5" style="stop-color:#D4B9EB"/>
							<stop  offset="0.7254" style="stop-color:#C6A2E4"/>
							<stop  offset="1" style="stop-color:#B88BDD"/>
						</linearGradient>
						<polygon class="st6" points="713.42,175.86 606.99,175.88 606.94,-19.26 713.37,-19.28 713.37,-17.05 713.38,-1.34 						"/>
						<g>
							<g>
								<rect x="695.24" y="95.2" class="st7" width="25.32" height="81.14"/>
								<rect x="817.69" y="124.71" class="st7" width="40.78" height="51.63"/>
								<rect x="831.23" y="103.54" class="st7" width="18.06" height="31.34"/>
								<rect x="762.81" y="111.68" class="st7" width="18.06" height="31.34"/>
								<rect x="694.7" y="88.27" class="st7" width="26.39" height="3.19"/>
								<g>
									<rect x="716.39" y="90.59" class="st7" width="2.2" height="17.96"/>
									<rect x="711.59" y="90.59" class="st7" width="2.2" height="17.96"/>
									<rect x="706.8" y="90.59" class="st7" width="2.2" height="17.96"/>
									<rect x="702" y="90.59" class="st7" width="2.2" height="17.96"/>
									<rect x="697.2" y="90.59" class="st7" width="2.2" height="17.96"/>
								</g>
								<rect x="777.46" y="105.36" class="st7" width="36.89" height="70.97"/>
								<rect x="717.41" y="137.73" class="st7" width="21.51" height="38.6"/>
								<polygon class="st7" points="1016.08,176.31 1016.08,142.79 990.61,143.59 990.61,176.31 								"/>
								<polygon class="st7" points="1010.1,147.18 995.36,147.18 995.36,134.49 1002.73,128.35 1010.1,134.49 								"/>
								<polygon class="st7" points="642,176.31 642,138.61 609.45,139.52 609.45,176.31 								"/>
								<polygon class="st7" points="642,162.79 642,127.89 613.58,128.72 613.58,162.79 								"/>
								<polygon class="st7" points="767.27,176.33 767.27,105.36 746.22,109.15 746.22,176.33 								"/>
								<polygon class="st7" points="698.14,176.33 698.14,96.27 677.08,100.54 677.08,176.33 								"/>
								<polygon class="st7" points="756.74,176.33 756.74,124.56 735.69,121.53 735.69,176.33 								"/>
								<rect x="946.49" y="82.46" class="st7" width="1.7" height="9.18"/>
								<rect x="942.58" y="84.57" class="st7" width="1.7" height="9.18"/>
								<rect x="953.51" y="84.57" class="st7" width="1.7" height="9.18"/>
								<polygon class="st7" points="964.7,176.31 964.7,91.26 933.85,91.67 933.85,176.31 								"/>
								<polygon class="st7" points="882.36,176.33 882.36,114.14 851.82,94.99 851.82,176.33 								"/>
								<rect x="962.18" y="114.69" class="st7" width="28.68" height="61.62"/>
								<rect x="962.18" y="110.87" class="st7" width="23.31" height="23.03"/>
								<rect x="967.82" y="105.09" class="st7" width="13.14" height="10.04"/>
								<rect x="640.68" y="118.72" class="st7" width="37.54" height="57.59"/>
								<rect x="647.72" y="115.16" class="st7" width="30.51" height="21.52"/>
								<rect x="653.64" y="109.76" class="st7" width="17.2" height="9.38"/>
								<polygon class="st8" points="781.29,99.82 785.38,99.82 785.38,79.39 786.57,79.39 787.5,75.4 788.44,79.39 791.07,79.39 
									791.07,74.24 792.13,72.69 793.2,72.69 793.2,65.85 794.1,65.85 794.49,64.2 794.49,60.93 795.26,60.93 796.09,57.4 
									796.92,60.93 797.68,60.93 797.68,64.2 798.07,65.85 798.98,65.85 798.98,72.69 800.04,72.69 801.1,74.24 801.1,79.39 
									803.74,79.39 804.67,75.4 805.61,79.39 806.79,79.39 806.79,99.82 810.88,99.82 810.88,172.47 781.29,172.47 								"/>
							</g>
							<g>
								<rect x="859.33" y="115.01" class="st9" width="14.87" height="2.44"/>
								<rect x="859.33" y="121.09" class="st9" width="14.87" height="2.44"/>
								<rect x="859.33" y="127.16" class="st9" width="14.87" height="2.44"/>
								<rect x="859.33" y="133.24" class="st9" width="14.87" height="2.44"/>
								<rect x="859.33" y="139.31" class="st9" width="14.87" height="2.44"/>
								<rect x="859.33" y="145.39" class="st9" width="14.87" height="2.44"/>
								<rect x="859.33" y="151.47" class="st9" width="14.87" height="2.44"/>
								<rect x="859.33" y="157.54" class="st9" width="14.87" height="2.44"/>
								<rect x="859.33" y="163.62" class="st9" width="14.87" height="2.44"/>
								<rect x="859.33" y="169.7" class="st9" width="14.87" height="2.44"/>
								<rect x="859.33" y="175.77" class="st9" width="14.87" height="2.44"/>
							</g>
							<g>
								<rect x="653.81" y="120.6" class="st9" width="14.87" height="2.44"/>
								<rect x="653.81" y="126.68" class="st9" width="14.87" height="2.44"/>
								<rect x="653.81" y="132.75" class="st9" width="14.87" height="2.44"/>
								<rect x="653.81" y="138.83" class="st9" width="14.87" height="2.44"/>
								<rect x="653.81" y="144.91" class="st9" width="14.87" height="2.44"/>
								<rect x="653.81" y="150.98" class="st9" width="14.87" height="2.44"/>
								<rect x="653.81" y="157.06" class="st9" width="14.87" height="2.44"/>
								<rect x="653.81" y="163.14" class="st9" width="14.87" height="2.44"/>
								<rect x="653.81" y="169.21" class="st9" width="14.87" height="2.44"/>
								<rect x="653.81" y="175.29" class="st9" width="14.87" height="2.44"/>
								<rect x="653.81" y="181.36" class="st9" width="14.87" height="2.44"/>
							</g>
							<g>
								<rect x="751.69" y="114.45" class="st9" width="10.94" height="2.44"/>
								<rect x="751.69" y="120.53" class="st9" width="10.94" height="2.44"/>
								<rect x="751.69" y="126.6" class="st9" width="10.94" height="2.44"/>
								<rect x="751.69" y="132.68" class="st9" width="10.94" height="2.44"/>
								<rect x="751.69" y="138.75" class="st9" width="10.94" height="2.44"/>
								<rect x="751.69" y="144.83" class="st9" width="10.94" height="2.44"/>
								<rect x="751.69" y="150.91" class="st9" width="10.94" height="2.44"/>
								<rect x="751.69" y="156.98" class="st9" width="10.94" height="2.44"/>
								<rect x="751.69" y="163.06" class="st9" width="10.94" height="2.44"/>
								<rect x="751.69" y="169.14" class="st9" width="10.94" height="2.44"/>
								<rect x="751.69" y="175.21" class="st9" width="10.94" height="2.44"/>
							</g>
							<g>
								<g>
									<rect x="788.57" y="82.11" class="st9" width="3.84" height="1.49"/>
									<rect x="788.57" y="87.69" class="st9" width="3.84" height="1.49"/>
									<rect x="788.57" y="93.26" class="st9" width="3.84" height="1.49"/>
									<rect x="788.57" y="98.83" class="st9" width="3.84" height="1.49"/>
									<rect x="788.57" y="104.4" class="st9" width="3.84" height="1.49"/>
									<rect x="788.57" y="109.97" class="st9" width="3.84" height="1.49"/>
									<rect x="788.57" y="115.54" class="st9" width="3.84" height="1.49"/>
									<rect x="788.57" y="121.11" class="st9" width="3.84" height="1.49"/>
									<rect x="788.57" y="126.69" class="st9" width="3.84" height="1.49"/>
									<rect x="788.57" y="132.26" class="st9" width="3.84" height="1.49"/>
									<rect x="788.57" y="137.83" class="st9" width="3.84" height="1.49"/>
								</g>
								<g>
									<rect x="794.18" y="82.11" class="st9" width="3.84" height="1.49"/>
									<rect x="794.18" y="87.69" class="st9" width="3.84" height="1.49"/>
									<rect x="794.18" y="93.26" class="st9" width="3.84" height="1.49"/>
									<rect x="794.18" y="98.83" class="st9" width="3.84" height="1.49"/>
									<rect x="794.18" y="104.4" class="st9" width="3.84" height="1.49"/>
									<rect x="794.18" y="109.97" class="st9" width="3.84" height="1.49"/>
									<rect x="794.18" y="115.54" class="st9" width="3.84" height="1.49"/>
									<rect x="794.18" y="121.11" class="st9" width="3.84" height="1.49"/>
									<rect x="794.18" y="126.69" class="st9" width="3.84" height="1.49"/>
									<rect x="794.18" y="132.26" class="st9" width="3.84" height="1.49"/>
									<rect x="794.18" y="137.83" class="st9" width="3.84" height="1.49"/>
								</g>
								<g>
									<rect x="799.8" y="82.11" class="st9" width="3.84" height="1.49"/>
									<rect x="799.8" y="87.69" class="st9" width="3.84" height="1.49"/>
									<rect x="799.8" y="93.26" class="st9" width="3.84" height="1.49"/>
									<rect x="799.8" y="98.83" class="st9" width="3.84" height="1.49"/>
									<rect x="799.8" y="104.4" class="st9" width="3.84" height="1.49"/>
									<rect x="799.8" y="109.97" class="st9" width="3.84" height="1.49"/>
									<rect x="799.8" y="115.54" class="st9" width="3.84" height="1.49"/>
									<rect x="799.8" y="121.11" class="st9" width="3.84" height="1.49"/>
									<rect x="799.8" y="126.69" class="st9" width="3.84" height="1.49"/>
									<rect x="799.8" y="132.26" class="st9" width="3.84" height="1.49"/>
									<rect x="799.8" y="137.83" class="st9" width="3.84" height="1.49"/>
								</g>
							</g>
							<g>
								<g>
									<rect x="699.86" y="103.25" class="st9" width="3.84" height="1.49"/>
									<rect x="699.86" y="108.82" class="st9" width="3.84" height="1.49"/>
									<rect x="699.86" y="114.4" class="st9" width="3.84" height="1.49"/>
									<rect x="699.86" y="119.97" class="st9" width="3.84" height="1.49"/>
									<rect x="699.86" y="125.54" class="st9" width="3.84" height="1.49"/>
									<rect x="699.86" y="131.11" class="st9" width="3.84" height="1.49"/>
									<rect x="699.86" y="136.68" class="st9" width="3.84" height="1.49"/>
									<rect x="699.86" y="142.25" class="st9" width="3.84" height="1.49"/>
									<rect x="699.86" y="147.83" class="st9" width="3.84" height="1.49"/>
									<rect x="699.86" y="153.4" class="st9" width="3.84" height="1.49"/>
									<rect x="699.86" y="158.97" class="st9" width="3.84" height="1.49"/>
								</g>
								<g>
									<rect x="705.48" y="103.25" class="st9" width="3.84" height="1.49"/>
									<rect x="705.48" y="108.82" class="st9" width="3.84" height="1.49"/>
									<rect x="705.48" y="114.4" class="st9" width="3.84" height="1.49"/>
									<rect x="705.48" y="119.97" class="st9" width="3.84" height="1.49"/>
									<rect x="705.48" y="125.54" class="st9" width="3.84" height="1.49"/>
									<rect x="705.48" y="131.11" class="st9" width="3.84" height="1.49"/>
									<rect x="705.48" y="136.68" class="st9" width="3.84" height="1.49"/>
									<rect x="705.48" y="142.25" class="st9" width="3.84" height="1.49"/>
									<rect x="705.48" y="147.83" class="st9" width="3.84" height="1.49"/>
									<rect x="705.48" y="153.4" class="st9" width="3.84" height="1.49"/>
									<rect x="705.48" y="158.97" class="st9" width="3.84" height="1.49"/>
								</g>
								<g>
									<rect x="711.09" y="103.25" class="st9" width="3.84" height="1.49"/>
									<rect x="711.09" y="108.82" class="st9" width="3.84" height="1.49"/>
									<rect x="711.09" y="114.4" class="st9" width="3.84" height="1.49"/>
									<rect x="711.09" y="119.97" class="st9" width="3.84" height="1.49"/>
									<rect x="711.09" y="125.54" class="st9" width="3.84" height="1.49"/>
									<rect x="711.09" y="131.11" class="st9" width="3.84" height="1.49"/>
									<rect x="711.09" y="136.68" class="st9" width="3.84" height="1.49"/>
									<rect x="711.09" y="142.25" class="st9" width="3.84" height="1.49"/>
									<rect x="711.09" y="147.83" class="st9" width="3.84" height="1.49"/>
									<rect x="711.09" y="153.4" class="st9" width="3.84" height="1.49"/>
									<rect x="711.09" y="158.97" class="st9" width="3.84" height="1.49"/>
								</g>
							</g>
							<g>
								<rect x="939.39" y="97.41" class="st9" width="21.67" height="1.49"/>
								<rect x="939.39" y="102.85" class="st9" width="21.67" height="1.49"/>
								<rect x="939.39" y="108.3" class="st9" width="21.67" height="1.49"/>
								<rect x="939.39" y="113.75" class="st9" width="21.67" height="1.49"/>
								<rect x="939.39" y="119.2" class="st9" width="21.67" height="1.49"/>
								<rect x="939.39" y="124.65" class="st9" width="21.67" height="1.49"/>
								<rect x="939.39" y="130.1" class="st9" width="21.67" height="1.49"/>
								<rect x="939.39" y="135.54" class="st9" width="21.67" height="1.49"/>
								<rect x="939.39" y="140.99" class="st9" width="21.67" height="1.49"/>
								<rect x="939.39" y="146.44" class="st9" width="21.67" height="1.49"/>
								<rect x="939.39" y="151.89" class="st9" width="21.67" height="1.49"/>
							</g>
							<path class="st8" d="M895.38,98.7l0.3,1.01c0,0-0.19,0.11-0.06,1.03c0.13,0.91,0.13,1.25,0.13,1.25s0.32,0.86,0.57,2.39
								c0.25,1.54,0.06,3.14,0.25,4.45s1.33,3.19,0.82,3.48s-1.58,2.17-1.27,3.53c0.32,1.37,1.01,1.54,1.01,1.54
								s-0.25,1.14,0.32,1.48c0.57,0.34,0.76,1.2,0.63,1.77s-0.19,1.54,0.25,2.11s1.08,1.31,0.25,3.19
								c-0.82,1.88-0.7,3.48-0.44,4.05c0.25,0.57,0.63,0.97,0.63,0.97s-0.76,1.94-0.7,3.42s0.89,2.51,0.95,4.33s0.25,2.34,0,3.19
								c-0.25,0.86,0.13,1.37,0.13,1.37s-0.44,2.05-0.25,2.96s-0.13,2.28,0.06,2.96c0.19,0.68-0.13,1.6,0.06,2.34
								c0.19,0.74,0.19,1.48-0.25,2c-0.44,0.51-1.27,1.25-1.27,1.25s12.04,0.4,13.94,0.4s2.79-0.4,2.79-0.4s-1.14-2.05-1.08-3.82
								s-0.06-2.39-0.06-2.39s0.82-0.4,0.82-1.54s-0.32-2.91-0.32-2.91s0.7-0.86,0.7-1.48c0-0.63-0.19-0.8-0.19-0.8
								s0.44-0.51,0.19-2.05c-0.25-1.54-0.38-4.62-0.63-5.3c-0.25-0.68-0.44-1.03-0.44-1.03s1.52,0,1.96-0.4s1.01-1.42,1.08-2.45
								c0.06-1.03,0.19-1.71,0.19-1.71s1.08-0.06,1.77-1.2c0.7-1.14,0.95-1.48,0.82-1.94s-0.32-0.63-0.32-0.63l0.76-1.77l-3.17-1.71
								l-1.58,1.65c0,0-1.77,0.17-2.28-1.54s-0.76-2.74-1.58-3.48c-0.82-0.74-1.39-0.8-1.84-1.65c-0.44-0.86-0.82-1.14-0.44-1.65
								s0.06-1.03,0-1.77c-0.03-0.39,0.04-1.04-0.02-1.7l3.27-0.2l-3.3-0.11c-0.04-0.26-0.1-0.53-0.21-0.77l2.77-1.05l-2.99,0.65
								c-0.05-0.06-0.09-0.12-0.15-0.18c-0.18-0.2-0.41-0.36-0.68-0.49l2.03-2.16l-2.55,1.96c-0.31-0.09-0.64-0.14-0.98-0.16
								l-0.37-4.11l-0.37,4.11c-0.39,0.03-0.77,0.12-1.08,0.24l-2.67-2.05l2.18,2.32c-0.24,0.17-0.41,0.38-0.55,0.6l-3-0.65
								c-0.07-1.05-0.49-2.57-0.96-3.56c-0.57-1.2-0.38-1.65-0.38-3.25s-0.82-1.6-0.76-2.68c0.03-0.51,0.07-0.96,0.11-1.29h0.95
								c0.16,0,0.3-0.12,0.3-0.27v-0.49c0-0.15-0.13-0.27-0.3-0.27h-0.75c0.53-0.13,0.87-0.24,0.87-0.54s-1.02-0.79-2.27-0.79
								s-2.27,0.42-2.27,0.79c0,0.22,0.34,0.41,0.87,0.54h-0.75c-0.16,0-0.3,0.12-0.3,0.27v0.49c0,0.15,0.13,0.27,0.3,0.27h0.8
								L895.38,98.7L895.38,98.7z M902.59,111.22l-1.87,0.06c-0.5-0.42-0.89-0.45-0.79-1.2c0.02-0.15,0.02-0.33,0.01-0.53l2.78,1.05
								C902.66,110.82,902.61,111.03,902.59,111.22L902.59,111.22z M900.85,111.39l1.73,0.11c0,0.09,0.01,0.17,0.01,0.24
								c0.06,0.51-0.19,0.74-0.06,1.2s-0.25,1.14-0.7,0.91c-0.44-0.23,0.06-1.08-0.63-2.05
								C901.08,111.63,900.96,111.5,900.85,111.39L900.85,111.39z M895.89,96.19c0,0-0.57-0.73-0.16-1.56
								c0.41-0.83,0.3-1.22,0.3-1.22l0.3,0.54c0,0,0.73,0.46,0.79-0.49c0.05-0.95,0.03-1,0.03-1s0.3,1,0.6,1.32s0.32-0.37,0.32-0.37
								s0.32,0.97,0.03,1.46c-0.3,0.49,0.16,0.54-0.38,1.14C897.17,96.63,895.89,96.19,895.89,96.19L895.89,96.19z"/>
							<polygon class="st8" points="895.99,154.3 915.47,154.3 915.47,155.1 915.73,155.1 915.73,155.5 915.47,155.5 915.47,157.12 
								920.23,157.12 920.23,160.18 919.13,160.18 919.13,175.88 919.23,175.88 921.09,176.97 921.09,179.42 920.64,179.42 
								920.64,180.74 921.04,180.74 921.04,185.5 926.37,185.5 926.37,189.08 885.09,189.08 885.09,185.5 890.41,185.5 
								890.41,180.74 890.82,180.74 890.82,179.42 890.36,179.42 890.36,176.97 892.23,175.88 892.33,175.88 892.33,160.18 
								891.22,160.18 891.22,157.12 895.99,157.12 895.99,155.5 895.73,155.5 895.73,155.1 895.99,155.1 							"/>
							<g>
								<g>
									<rect x="781.61" y="104.73" class="st9" width="2.77" height="1.19"/>
									<rect x="781.61" y="109.18" class="st9" width="2.77" height="1.19"/>
									<rect x="781.61" y="113.62" class="st9" width="2.77" height="1.19"/>
									<rect x="781.61" y="118.07" class="st9" width="2.77" height="1.19"/>
									<rect x="781.61" y="122.52" class="st9" width="2.77" height="1.19"/>
									<rect x="781.61" y="126.96" class="st9" width="2.77" height="1.19"/>
									<rect x="781.61" y="131.41" class="st9" width="2.77" height="1.19"/>
									<rect x="781.61" y="135.86" class="st9" width="2.77" height="1.19"/>
									<rect x="781.61" y="140.3" class="st9" width="2.77" height="1.19"/>
									<rect x="781.61" y="144.75" class="st9" width="2.77" height="1.19"/>
									<rect x="781.61" y="149.2" class="st9" width="2.77" height="1.19"/>
								</g>
							</g>
							<g>
								<g>
									<rect x="807.05" y="104.73" class="st9" width="2.77" height="1.19"/>
									<rect x="807.05" y="109.18" class="st9" width="2.77" height="1.19"/>
									<rect x="807.05" y="113.62" class="st9" width="2.77" height="1.19"/>
									<rect x="807.05" y="118.07" class="st9" width="2.77" height="1.19"/>
									<rect x="807.05" y="122.52" class="st9" width="2.77" height="1.19"/>
									<rect x="807.05" y="126.96" class="st9" width="2.77" height="1.19"/>
									<rect x="807.05" y="131.41" class="st9" width="2.77" height="1.19"/>
									<rect x="807.05" y="135.86" class="st9" width="2.77" height="1.19"/>
									<rect x="807.05" y="140.3" class="st9" width="2.77" height="1.19"/>
									<rect x="807.05" y="144.75" class="st9" width="2.77" height="1.19"/>
									<rect x="807.05" y="149.2" class="st9" width="2.77" height="1.19"/>
								</g>
							</g>
						</g>
						<rect x="724.27" y="-19.49" class="st10" width="3.12" height="197.46"/>
						<rect x="843.22" y="-19.49" class="st10" width="3.12" height="197.46"/>
						
							<linearGradient id="SVGID_7_" gradientUnits="userSpaceOnUse" x1="718.655" y1="321.4443" x2="718.655" y2="543.6495" gradientTransform="matrix(1 0 0 1 0 -324)">
							<stop  offset="2.702700e-03" style="stop-color:#A667CD"/>
							<stop  offset="1" style="stop-color:#BDC6FF"/>
						</linearGradient>
						<rect x="713.05" y="-20.73" class="st11" width="11.21" height="198.36"/>
						<rect x="635.73" y="-19.49" class="st10" width="3.12" height="197.46"/>
						
							<linearGradient id="SVGID_8_" gradientUnits="userSpaceOnUse" x1="630.105" y1="321.4443" x2="630.105" y2="543.6495" gradientTransform="matrix(1 0 0 1 0 -324)">
							<stop  offset="2.702700e-03" style="stop-color:#A667CD"/>
							<stop  offset="1" style="stop-color:#BDC6FF"/>
						</linearGradient>
						<rect x="624.5" y="-20.73" class="st12" width="11.21" height="198.36"/>
						
							<linearGradient id="SVGID_9_" gradientUnits="userSpaceOnUse" x1="838.1951" y1="326.1771" x2="838.1951" y2="580.3143" gradientTransform="matrix(1 0 0 1 0 -324)">
							<stop  offset="2.702700e-03" style="stop-color:#A667CD"/>
							<stop  offset="1" style="stop-color:#BDC6FF"/>
						</linearGradient>
						<rect x="832.59" y="-18.6" class="st13" width="11.21" height="196.24"/>
						
							<linearGradient id="SVGID_10_" gradientUnits="userSpaceOnUse" x1="962.625" y1="326.1771" x2="962.625" y2="580.3143" gradientTransform="matrix(1 0 0 1 0 -324)">
							<stop  offset="2.702700e-03" style="stop-color:#A667CD"/>
							<stop  offset="1" style="stop-color:#BDC6FF"/>
						</linearGradient>
						<rect x="957.02" y="-18.6" class="st14" width="11.21" height="196.24"/>
						<rect x="967.16" y="-15.52" class="st10" width="2.68" height="192.01"/>
						<path class="st15" d="M1010.41,231.77l-357.2,0.07L700.15,201c0.59-0.39,1.3-0.59,2.03-0.59l259.23-0.05
							c0.74,0,1.45,0.2,2.03,0.59L1010.41,231.77z"/>
						
							<linearGradient id="SVGID_11_" gradientUnits="userSpaceOnUse" x1="772.055" y1="503.8674" x2="772.055" y2="643.7165" gradientTransform="matrix(1 0 0 1 0 -324)">
							<stop  offset="2.702700e-03" style="stop-color:#B752F1"/>
							<stop  offset="1" style="stop-color:#BDC6FF"/>
						</linearGradient>
						<polygon class="st16" points="999.64,276.23 999.64,279.46 914.28,279.5 914.1,279.5 868.68,279.51 544.48,279.66 
							544.47,200.57 633.47,200.53 999.63,200.38 						"/>
						<path class="st17" d="M974.09,179.06l-328.97,0.05c-3,0-4.28-2.19-1.88-3.22l0.9-0.39l330.93-0.04l0.89,0.39
							C978.37,176.87,977.09,179.06,974.09,179.06z"/>
					</g>
				</g>
			</g>
		</g>
		<g>
			<polygon class="st18" points="883.03,281.87 883.03,281.82 967.7,281.82 967.7,281.87 976.61,278.25 976.61,148.27 
				874.11,148.27 874.11,281.87 			"/>
			<rect x="880.8" y="153.95" class="st19" width="89.13" height="41.69"/>
			<rect x="880.8" y="198.95" class="st19" width="89.13" height="41.69"/>
			<path class="st20" d="M963,195.64h6.33c0.66,0,1.2-0.51,1.2-1.13v-36.63c0-0.63-0.54-1.13-1.2-1.13H963
				c-0.66,0-1.2,0.51-1.2,1.13v36.63C961.8,195.13,962.33,195.64,963,195.64z"/>
			<path class="st20" d="M888.33,156.22H882c-0.66,0-1.2,0.51-1.2,1.13v36.63c0,0.63,0.54,1.13,1.2,1.13h6.33
				c0.66,0,1.2-0.51,1.2-1.13v-36.63C889.53,156.73,888.99,156.22,888.33,156.22z"/>
			<path class="st21" d="M901.42,156.22h-1.96c-0.66,0-1.2,0.51-1.2,1.13v36.63c0,0.63,0.54,1.13,1.2,1.13h1.96
				c0.66,0,1.2-0.51,1.2-1.13v-36.63C902.62,156.73,902.08,156.22,901.42,156.22z"/>
			<path class="st22" d="M888.55,202.28h-4.1c-0.66,0-1.2,0.51-1.2,1.13v36.63c0,0.63,0.54,1.13,1.2,1.13h4.1
				c0.66,0,1.2-0.51,1.2-1.13v-36.63C889.75,202.78,889.22,202.28,888.55,202.28z"/>
			<path class="st20" d="M892.39,202.28h-2.88c-0.66,0-1.2,0.51-1.2,1.13v36.63c0,0.63,0.54,1.13,1.2,1.13h2.88
				c0.66,0,1.2-0.51,1.2-1.13v-36.63C893.59,202.78,893.05,202.28,892.39,202.28z"/>
			<path class="st23" d="M897.51,202.28h-2.88c-0.66,0-1.2,0.51-1.2,1.13v36.63c0,0.63,0.54,1.13,1.2,1.13h2.88
				c0.66,0,1.2-0.51,1.2-1.13v-36.63C898.71,202.78,898.17,202.28,897.51,202.28z"/>
			<path class="st24" d="M905.49,202.28h-6.33c-0.66,0-1.2,0.51-1.2,1.13v36.63c0,0.63,0.54,1.13,1.2,1.13h6.33
				c0.66,0,1.2-0.51,1.2-1.13v-36.63C906.69,202.78,906.15,202.28,905.49,202.28z"/>
			<path class="st25" d="M909.85,202.28h-1.96c-0.66,0-1.2,0.51-1.2,1.13v36.63c0,0.63,0.54,1.13,1.2,1.13h1.96
				c0.66,0,1.2-0.51,1.2-1.13v-36.63C911.05,202.78,910.52,202.28,909.85,202.28z"/>
			<path class="st20" d="M918.58,202.28h-6.33c-0.66,0-1.2,0.51-1.2,1.13v36.63c0,0.63,0.54,1.13,1.2,1.13h6.33
				c0.66,0,1.2-0.51,1.2-1.13v-36.63C919.78,202.78,919.24,202.28,918.58,202.28z"/>
			<path class="st21" d="M964.26,237.05h-38.84c-0.66,0-1.2,0.51-1.2,1.13v1.85c0,0.63,0.54,1.13,1.2,1.13h38.84
				c0.66,0,1.2-0.51,1.2-1.13v-1.85C965.46,237.56,964.92,237.05,964.26,237.05z"/>
			<path class="st26" d="M964.26,228.19h-38.84c-0.66,0-1.2,0.51-1.2,1.13v5.97c0,0.63,0.54,1.13,1.2,1.13h38.84
				c0.66,0,1.2-0.51,1.2-1.13v-5.97C965.46,228.69,964.92,228.19,964.26,228.19z"/>
			<path class="st24" d="M964.26,222.16h-38.84c-0.66,0-1.2,0.51-1.2,1.13v3.94c0,0.63,0.54,1.13,1.2,1.13h38.84
				c0.66,0,1.2-0.51,1.2-1.13v-3.94C965.46,222.67,964.92,222.16,964.26,222.16z"/>
			<path class="st25" d="M896.55,156.22h-5.33c-0.94,0-1.7,0.72-1.7,1.6v35.68c0,0.89,0.76,1.6,1.7,1.6h5.33
				c0.94,0,1.7-0.71,1.7-1.6v-35.68C898.25,156.94,897.49,156.22,896.55,156.22z"/>
			<path class="st23" d="M890.3,173.38c-0.27,0-0.54,0.06-0.77,0.18v4.21c0.23,0.11,0.5,0.18,0.77,0.18h7.18
				c0.27,0,0.54-0.06,0.77-0.18v-4.21c-0.23-0.12-0.5-0.18-0.77-0.18H890.3z"/>
			<path class="st27" d="M956.75,195.64h3.85c0.66,0,1.2-0.51,1.2-1.13V159.4c0-0.63-0.54-1.13-1.2-1.13h-3.85
				c-0.66,0-1.2,0.51-1.2,1.13v35.11C955.55,195.13,956.08,195.64,956.75,195.64z"/>
			<path class="st27" d="M950.27,162.04l-3.45-1.61c-0.59-0.28-1.31-0.05-1.61,0.51l-16.54,31.45c-0.29,0.56-0.05,1.24,0.54,1.52
				l3.45,1.61c0.59,0.28,1.31,0.05,1.61-0.51l16.54-31.45C951.11,163,950.87,162.32,950.27,162.04z"/>
			<path class="st28" d="M954.29,195.64h0.57c0.38,0,0.68-0.29,0.68-0.64v-36.09c0-0.36-0.31-0.64-0.68-0.64h-0.57
				c-0.38,0-0.68,0.29-0.68,0.64V195C953.61,195.35,953.92,195.64,954.29,195.64z"/>
			<path class="st23" d="M952.36,195.64h0.57c0.38,0,0.68-0.29,0.68-0.64v-36.09c0-0.36-0.31-0.64-0.68-0.64h-0.57
				c-0.38,0-0.68,0.29-0.68,0.64V195C951.68,195.35,951.98,195.64,952.36,195.64z"/>
			<path class="st29" d="M950.43,195.64H951c0.38,0,0.68-0.29,0.68-0.64v-36.09c0-0.36-0.31-0.64-0.68-0.64h-0.57
				c-0.38,0-0.68,0.29-0.68,0.64V195C949.74,195.35,950.05,195.64,950.43,195.64z"/>
			<path class="st30" d="M929.43,251.9c0,2.12-1.82,3.84-4.07,3.84s-4.07-1.72-4.07-3.84s1.82-3.84,4.07-3.84
				S929.43,249.78,929.43,251.9z"/>
		</g>
		<path class="st1" d="M691.85,285.96c13.98-0.87,28.06-2.2,42.01-0.1c13.05,1.96,25.6,6.79,37.98,11.97
			c22.94,9.63,44.85,18.33,69.37,18.79c24.64,0.47,49.16-4.59,73.33-9.93c20.9-4.62,72.28,1.45,75.42-23.71
			c0.26-2.07-0.16-3.91,1.27-5.45c0,0-185.11-13.08-247.33-11.68c-62.21,1.4-111.25,10.69-111.25,10.69
			C650.57,287.8,672.2,287.2,691.85,285.96z"/>
		<g>
			<g>
				<path class="st31" d="M843.73,149.61c-2.05-0.87-4.12-1.67-6.21-2.4c-15.34-5.37-31.7-7.01-47.61-4.62
					c-12.14,1.82-24.99,4.48-37.54,4.99c-7.22,0.29-14.21-0.59-21.18-1.78c-6.06-1.03-12.1-2.29-18.28-3.21
					c-18.08-2.72-36.74-0.23-53.82,7.02c-19.31,8.2-41.5,24.53-22.08,47.47c11.15,13.16,2.81,25.08,2.81,25.08l-2.81-0.99
					L650,232.11l26.42-2.84l21.86-2.35l43.3-8.29l3.54-0.68l2.95-0.56l3.33-0.64l53.12,10.17l48.28,5.19l12.99-10.94l-2.81,0.99
					c0,0-8.33-11.92,2.81-25.08C885.23,174.15,863.04,157.81,843.73,149.61z"/>
				<path class="st31" d="M837.04,261.81c-11.63-1.73-73.1-5.36-82.75-5.36c-1.31,0-4.45,0-5.76,0c-9.65,0-71.12,3.63-82.75,5.36
					c-11.63,1.73-21.86,0.25-21.86,0.25l-6.96,11.14l3.48-2.16l8.92-2.11c0,0,12.81-2.27,39.39-7.61
					c36.29-7.29,58.66-8.81,58.66-8.81h8.01c0,0,22.36,1.52,58.66,8.81c26.58,5.34,39.39,7.61,39.39,7.61l8.92,8.59h3.48
					l-6.96-15.46C858.9,262.06,848.67,263.54,837.04,261.81z"/>
				<path class="st32" d="M878.91,195.57c-13.05,9.09-23.49,9.67-23.49,9.67s22.84,25.35-0.33,35.73
					c-23.16,10.38-49.59-3.71-67.15-11.11c-15.12-6.37-32.09-3.7-36.53-2.84c-4.44-0.87-21.41-3.54-36.53,2.84
					c-17.57,7.41-43.99,21.49-67.15,11.11c-23.16-10.38-0.33-35.73-0.33-35.73s-10.44-0.57-23.49-9.67
					c-13.05-9.09-33.6,11.45-29.03,25.64c4.57,14.19,16.96,20.13,23.81,17.16s25.01,17.55,25.23,27.31c0,0,8.63,2.34,27.37-1.18
					c18.73-3.53,72.98-11.72,76.97-10.73c0.71,0.18,5.76,0.18,6.47,0c3.99-0.99,58.06,7.21,76.8,10.73
					c18.73,3.53,27.37,1.18,27.37,1.18c0.22-9.76,18.38-30.27,25.23-27.31c6.85,2.97,19.25-2.97,23.81-17.16
					C912.51,207.02,891.96,186.48,878.91,195.57z"/>
				<path class="st27" d="M855.24,210.59H647.58c-2.44,0-4.74,1.45-6.03,3.88c-7.4,13.89-9.58,38.35,24.23,35.61
					c16.62-1.35,30.64-4.17,42.72-7.26c28.27-7.25,57.54-7.25,85.82,0c12.08,3.1,26.1,5.92,42.72,7.26
					c33.81,2.74,31.63-21.72,24.23-35.61C859.98,212.03,857.68,210.59,855.24,210.59z"/>
			</g>
			<path class="st33" d="M825.01,158.97c-1.7-1.58-3.56-2.87-5.35-3.69c-6.26-2.88-1.32-6.39-7.25-14.7
				c-5.94-8.31-15.16-4.47-22.74-4.15s-10.22-6.39-10.87-9.91c-0.48-2.52-2.31-7.68-5.5-10.87c-1.25-1.25-2.71-2.2-4.39-2.56
				c-5.93-1.27-5.93,2.24-7.91,1.6s-8.89-0.96-12.52,6.39c-1.73,3.51-1.21,5.42-0.22,6.69c1.08,1.4,2.7,2.04,2.53,3.21
				c-0.33,2.24-5.93,5.44-6.92,10.23c-0.95,4.59,2.75,6.8,6.5,8.37c5.25,2.2,10.16,5.41,13.16,10.23c2.44,3.91,1.7,9.72,5.22,12.98
				c2.87,2.65,7.48,2.52,11.04,1.98c3.13-0.48,5.66,1.69,7.61,4.21c1.08,1.39,1.98,2.89,2.71,4.1c0.29,0.48,0.58,0.96,0.88,1.43
				c3.45,5.53,7.34,10.35,14.65,10.76c0.71,0.04,1.46,0.04,2.23-0.02c2.9-0.2,6.04-1.1,8.12-2.87c0.81-0.68,1.45-1.5,1.86-2.46
				c0.25-0.56,0.42-1.17,0.48-1.83l0.01-0.02c0.05-0.47,0.06-0.96,0.01-1.48c-0.17-1.68,0.35-2.96,1.26-4.04
				c2.72-3.22,8.96-4.6,10.93-9.39C832.42,168.61,829.26,162.9,825.01,158.97z"/>
			<path class="st34" d="M785.78,152.28c-0.02,2.08-1.1,6.67-8.64,12.86c2.04,1.55,12.62,9.69,12.42,11.53
				c-0.22,2.04-7.69,9.92-17.07,15.69c0,0-5.29-2.55-4.97-1.43c0.32,1.12,1.19,1.43,1.19,1.43s-0.86,0.82-2.59,0.41
				c-1.73-0.41-3.35-1.09-2.16,0.68c1.19,1.77,5.72,2.69,9.07,0.85c0,0,16.54-4.55,22.7-10.97c6.16-6.42,5.29-8.23-0.54-17.29
				C791.07,159.65,787.51,154.66,785.78,152.28z"/>
			<path class="st35" d="M813.05,196.86c-2.03-1.01-3.51-1.4-3.51-1.4c-0.97,0.39-2.01,0.86-3.12,1.4
				c-13.86,6.78-38.15,25.03-54.77,39.48c-11.32,9.84-19.07,17.92-17.55,19.41c0.67,0.66,3.78,0.17,8.46-1.17
				c2.24-0.64,4.84-1.47,7.71-2.46c23.64-8.15,65.39-27.05,72.68-37.61l0,0c0.82-1.2,1.21-2.29,1.07-3.25
				C822.8,203.03,816.94,198.8,813.05,196.86z"/>
			<path class="st34" d="M737.32,150.75c0,0-4.71,6.24-10.55,15.29c-5.83,9.06-6.69,10.87-0.54,17.29
				c3.31,3.45,9.62,6.36,14.75,8.32c-3.55-5.33-6.36-10-7.1-12.42l0,0c-0.9-1.14-1.42-2.03-1.48-2.55c-0.03-0.28,0.19-0.7,0.58-1.23
				c1.97-2.59,8.38-7.65,11.02-9.68c0.72-0.55,1.16-0.88,1.16-0.88C736.67,157.5,737.32,150.75,737.32,150.75z"/>
			<path class="st34" d="M757.58,192.35c0.12,0.4,0.24,0.8,0.36,1.2c0.03-0.03,0.05-0.07,0.07-0.1
				C758.76,192.33,758.39,192.19,757.58,192.35z"/>
			<path class="st23" d="M771.39,143.61l-10.2-1.3l-10.19,1.3c0,0-7.32,1.86-14.25,7.43c0,0-2,5.57,8.72,14.29
				c0,0,0.78-0.7,1.57,0.58s2.49,2.9,3.14,6.27c0.65,3.37,2.36,12.51,1.44,14.79c-2.08,5.18,21.1,4.82,19.16,0
				c-0.92-2.28,0.79-11.42,1.44-14.79s2.35-4.99,3.14-6.27c0.78-1.28,1.57-0.58,1.57-0.58c0.07-0.06,0.15-0.12,0.22-0.18
				c7.54-6.2,8.62-10.78,8.64-12.86c0.01-0.81-0.15-1.24-0.15-1.24C778.7,145.47,771.39,143.61,771.39,143.61z"/>
			<path class="st34" d="M764.82,141.17c-0.37-1.05-0.37-4.53-0.37-4.53h-5.91c0,0,0.74,3.48-0.37,4.53s-5.91,2.44-5.91,2.44
				s8.13,9.06,19.21,0C771.47,143.61,765.19,142.21,764.82,141.17z"/>
			<path class="st34" d="M762.26,122.52c0,0-1.08,3.32-5.02,5.44c-3.94,2.11-3.94,8.15,1.79,10.57c0,0,2.15,2.11,5.74,0
				c3.59-2.11,6.1-4.53,4.3-7.55C767.28,127.96,761.9,124.63,762.26,122.52z"/>
			<polygon class="st36" points="744.11,195.3 761.19,199.36 761.19,177.75 744.11,173.92 			"/>
			<polygon class="st36" points="762.93,199.36 780.01,195.3 780.01,173.92 762.93,177.75 			"/>
			<path class="st34" d="M755.85,192.77c-1.73,0.41-2.59-0.41-2.59-0.41s0.86-0.31,1.19-1.43c0.32-1.12-4.97,1.43-4.97,1.43
				c-7-4.3-12.94-9.78-15.59-13.14c0.74,2.43,3.55,7.09,7.1,12.42c4.41,1.68,7.94,2.65,7.94,2.65c3.29,1.8,7.71,0.95,9-0.75
				c-0.12-0.4-0.24-0.8-0.36-1.2C757.11,192.43,756.49,192.62,755.85,192.77z"/>
			<rect x="761.19" y="177.75" class="st37" width="1.74" height="21.6"/>
			<polygon class="st38" points="745.91,174.33 761.19,177.75 762.06,177.75 745.91,173.03 			"/>
			<polygon class="st38" points="762.93,177.75 778.21,174.33 778.21,173.03 762.06,177.75 			"/>
			<path class="st25" d="M739.01,248.99c0,0-2.54-0.83-4.43-0.23s-3.87,2.94-2.95,6.13s-0.64,4.5-1.17,7.27
				c-0.53,2.76,0.92,3.19,1.64,3.58c0.72,0.39,2.09-4.08,3.3-5.76c1.21-1.68,5.53-5.99,5.53-5.99
				C738.13,251.38,739.01,248.99,739.01,248.99z"/>
			<path class="st39" d="M805.21,180.07c-4.29-4.04-12.79-2.26-18.82-0.64c-1.14,0.31-2.19,0.61-3.1,0.86
				c-7.04,1.94-18.1,6.63-25.24,7.93c-8.54,1.55-15.43,3.22-18.59,12.2c-0.9,2.57-1.23,5.44-0.97,8.28
				c0.62,7.1,4.82,13.95,12.52,15.16c1.82,0.28,3.69,0.28,5.53,0.11c0.87-0.08,1.77-0.31,2.68-0.67c0.48-0.19,0.96-0.42,1.45-0.67
				c-0.53,0.77-1.06,1.54-1.59,2.31l-0.01,0.01c-2.64,3.9-5.11,7.79-7.29,11.45c-4.77,7.97-8.2,14.84-9.11,18.27
				c-0.46,1.74-0.27,2.59,0.72,2.25c1.03-0.36,3.53-2.07,7-4.71c12.53-9.53,37.74-31.16,52.31-44.69
				c5.35-4.97,9.26-8.84,10.58-10.63c0.21-0.28,0.35-0.51,0.43-0.68c0.57-1.3,0.8-2.52,0.69-3.72
				C814.11,188.96,810.99,185.52,805.21,180.07z"/>
			<g>
				<path class="st40" d="M782.91,196.24c-1.03,1.17-2.05,2.35-3.07,3.52c-1.07,1.23-2.14,2.46-3.21,3.69
					c-3.08,3.55-6.15,7.11-9.2,10.69c-0.01,0.01-0.02,0.02-0.02,0.03c-0.49,0.57-0.98,1.14-1.47,1.72c-2.09,2.45-4.22,4.9-6.29,7.38
					c0.49-0.19,0.99-0.42,1.48-0.67c-0.55,0.77-1.09,1.54-1.62,2.31c0.27-0.33,0.54-0.65,0.81-0.98c0.45-0.54,0.9-1.09,1.35-1.62
					c6.92-8.31,14.03-16.5,21.17-24.65c0.25-0.29,0.5-0.57,0.75-0.86C783.96,196.37,783.28,195.81,782.91,196.24z"/>
			</g>
			<path class="st36" d="M744.82,249.58c0,0-2.69,0.05-4.24,1.23s-2.56,4.02-0.52,6.71c2.04,2.69,1.06,4.43,1.57,7.2
				c0.51,2.77,2.04,2.69,2.85,2.82s0.46-4.51,0.98-6.48c0.52-1.97,2.99-7.43,2.99-7.43C744.87,252.11,744.82,249.58,744.82,249.58z"
				/>
			<path class="st33" d="M836.83,168.24c-1.22-2.1-4.12-2.1-3.67,0.63c0.44,2.69,0.82,5.1-1.1,7.43c-1.04,1.27-2.49,2.17-3.79,3.2
				c-0.24,0.19-0.49,0.41-0.57,0.7c-0.12,0.42,0.17,0.86,0.57,1.07s0.87,0.24,1.33,0.23c3.51-0.1,6.81-2.55,7.72-5.75
				c0.42-1.47,0.38-3.02,0.25-4.53C837.49,170.21,837.36,169.15,836.83,168.24z"/>
			<path class="st33" d="M840.4,172.96c-0.56,0.25,0.4,3.5-0.21,4.36c-0.28,0.39-0.7,0.67-1.1,0.95c-0.4,0.28-0.81,0.6-1.01,1.03
				s-0.14,1.01,0.27,1.29c0.3,0.2,0.71,0.2,1.08,0.18c0.53-0.02,1.07-0.05,1.58-0.21c1.46-0.46,2.33-2.01,2.26-3.46
				C843.22,176.29,841.79,172.35,840.4,172.96z"/>
			<g>
				
					<linearGradient id="SVGID_12_" gradientUnits="userSpaceOnUse" x1="756.2739" y1="407.608" x2="861.0045" y2="610.9087" gradientTransform="matrix(1 0 0 1 0 -324)">
					<stop  offset="0" style="stop-color:#FAFFE1;stop-opacity:0.5"/>
					<stop  offset="0.7936" style="stop-color:#FAFFE1;stop-opacity:0.1433"/>
					<stop  offset="0.9263" style="stop-color:#FAFFE1;stop-opacity:0"/>
				</linearGradient>
				<polygon class="st41" points="756.82,75.37 935.08,281.94 781.99,282.29 725.72,99.84 				"/>
				<path class="st42" d="M660.56,254.52v-2.7c0-1.51,1.13-2.78,2.62-3.1c0-3.02,0,12.1,0,9.08c0-12.87,0-25.73,0-38.6
					c0-15.57,0-31.14,0-46.71c0-13.47,0-26.93,0-40.4c0-4.44,0-8.89,0-13.33c0-1.92-0.32-4.16-0.03-6.09h-1.11
					c-0.79,0-1.44-0.61-1.44-1.37v-8.04c0-0.75,0.65-1.37,1.44-1.37h1.65c17.78-9.66,35.57-19.32,53.35-28.98
					c2.56-1.39,5.13-2.78,7.69-4.18c0.13-0.07,0.26-0.1,0.38-0.09l1.54-1.24c0.6-0.49,1.52-0.41,2.03,0.16l5.48,6.14
					c0.51,0.57,0.44,1.44-0.17,1.92l-2.84,2.28c-0.6,0.49-1.52,0.41-2.03-0.16l-5.48-6.14c-0.15-0.17-0.24-0.36-0.29-0.55
					c-17.13,9.31-34.26,18.61-51.39,27.91c-1.87,1.01-3.73,2.03-5.6,3.04c0.5,0.22,0.85,0.69,0.85,1.24v8.04
					c0,0.75-0.65,1.37-1.44,1.37h-1.14c0,5.18,0,10.35,0,15.53c0,12.87,0,25.73,0,38.6c0,15.57,0,31.14,0,46.71
					c0,13.47,0,26.93,0,40.4c0,4.31,0-9.5,0-5.19c1.5,0.31,2.62,1.59,2.62,3.1v2.7c0,0.53-0.15,1.02-0.39,1.45
					c4.93,4.35,15.98,12.86,32.91,18.97H663.9h-35.87c16.93-6.11,27.99-14.62,32.91-18.97
					C660.71,255.54,660.56,255.05,660.56,254.52z"/>
				<g>
					<path class="st42" d="M758.1,76.18l-16.51,12.15l-11.37-13.9C747.72,62.39,758.1,76.18,758.1,76.18z"/>
					<path class="st42" d="M730.21,74.43l11.37,13.9l-16.51,12.15C725.07,100.48,713.58,87.51,730.21,74.43z"/>
				</g>
				<path class="st42" d="M730.31,68.19c1.83,0,3.91,0.68,5.55,3.1l-0.04,0.04c-2.86,3.07-6.31,5.6-10.15,7.47l-0.05,0.03
					c-2.06-2.11-2.24-4.19-1.78-5.87C724.58,70.18,727.28,68.19,730.31,68.19z"/>
				<path class="st40" d="M735.51,90.21c3-2.52,6.17-4.86,9.49-6.98c4.08-2.63,8.38-4.95,12.87-6.95c0.15-0.06,0.23-0.1,0.23-0.1
					l-33.03,24.3c0,0,0.06-0.06,0.16-0.18C728.38,96.67,731.82,93.3,735.51,90.21z"/>
				<path class="st43" d="M745.7,85.3c0.08,0.7,0.01,1.42-0.3,2.13c-0.79,1.89-2.96,3.54-5.03,4.05c-0.83,0.21-1.68,0.21-2.47,0.01
					c-0.06-0.01-0.2-0.07-0.39-0.16c-0.54-0.26-1.48-0.77-2-1.12c3-2.52,6.17-4.86,9.49-6.98C745.36,83.87,745.62,84.58,745.7,85.3z
					"/>
			</g>
		</g>
		<g>
			<path class="st25" d="M950.07,265.11c7.39-7.51,4.26-11.74,4.26-11.74c-4.31,3.09-5.61,6.23-5.83,8.62
				c-1.09-2.26-2.09-4.55-2.99-6.88c1.09-0.11,5.96-1.13,8.06-11.05c0,0-7.37,0.82-8.24,10.58c-1.45-3.79-2.65-7.65-3.58-11.56
				c9.77-6.1,7.52-11.11,7.52-11.11c-6.27,2.77-7.74,6.62-7.98,9.04c-0.55-2.56-0.98-5.14-1.29-7.71c-0.03-0.25-0.16-0.43-0.34-0.55
				c-0.88-8.7-5.68-9.5-5.68-9.5c-1.09,7.55,2.67,10.72,4.66,11.84c0.61,4.35,1.56,8.69,2.82,12.96c-5.97-5.52-11.55-2.8-11.55-2.8
				c6.2,5.77,10.42,5.73,12.31,5.24c0.94,2.89,2.01,5.75,3.22,8.55c-7.47-6.92-13.65-2.96-13.65-2.96
				c8.62,6.29,13.01,3.88,13.81,3.33c2.51,5.75,5.58,11.27,9.14,16.41c0.56,0.81,1.94,0.05,1.38-0.76
				C953.9,271.89,951.88,268.56,950.07,265.11z"/>
			<path class="st28" d="M996.5,254.65c0,0-3.44-1.15-6.43,2.48c0.53-1.4,1.01-2.81,1.41-4.23c0.94-0.98,2.35-3.25,0.58-7.17
				c0,0-2.91,1.31-1.37,7.24c-0.4,1.39-0.87,2.77-1.39,4.14c0.14-1.37-0.22-3.83-3.76-6.02c0,0-1.72,2.71,3.4,6.98
				c-0.9,2.22-1.94,4.4-3.13,6.5c0.46-5.83-3.78-6.9-3.78-6.9c0.37,6.21,3.4,6.9,3.74,6.96c-0.75,1.31-1.56,2.58-2.41,3.83
				c0.13-1.39-0.29-3.35-2.57-5.52c0,0-2.16,2.2,1.48,7.11c-1.33,1.82-2.76,3.56-4.29,5.2c-0.31,0.34,0.22,0.81,0.54,0.47
				c3.75-4.03,6.93-8.63,9.37-13.53c0.98,0.44,3.42,0.9,7.58-2.01c0,0-3.06-2.04-7.04,0.85c0.4-0.85,0.78-1.7,1.13-2.57
				C990.49,258.68,993.09,258.79,996.5,254.65z"/>
			<path class="st25" d="M999.74,256.32c0,0-3.53-2.92-8.95-0.12c2-3.35,3.71-6.82,5.1-10.36c0.03-0.08,0.04-0.15,0.05-0.22
				c0.85-1.36,2.33-5.02-1.8-9.87c0,0-3.1,2.54,0.65,9.24c-0.19,0.08-0.35,0.22-0.44,0.45c-0.68,1.75-1.45,3.47-2.29,5.17
				c0.16-1.9-0.43-4.82-4.27-7.77c0,0-2.66,3.34,3.33,9.6c-1.44,2.7-3.06,5.32-4.85,7.85c1.07-7.23-4.16-9.1-4.16-9.1
				c-0.38,7.43,2.71,9.3,3.72,9.72c-1.09,1.51-2.24,2.99-3.44,4.42c0.22-1.82-0.22-4.31-2.71-7.24c0,0-3.16,2.59,0.78,9.46
				c-2.07,2.29-4.27,4.46-6.59,6.47c-0.76,0.66,0.37,1.72,1.13,1.06c3.71-3.23,7.14-6.85,10.19-10.74c0.76,0.74,3.71,2.8,10.96-0.19
				c0,0-3.72-3.93-10.48-0.42c1.39-1.8,2.69-3.66,3.91-5.57C990.99,258.84,994.15,259.44,999.74,256.32z"/>
			<path class="st28" d="M975.05,267.46c0.36-2.21,0.63-4.44,0.79-6.68c1.58-0.01,4.69-0.81,8.17-6.02c0,0-4.57-1.09-8.04,3.78
				c0.12-2.91,0.06-5.83-0.17-8.71c1.9-0.47,5.03-2.05,6.31-7.29c0,0-3.46-0.63-6.57,4.8c0-0.03-0.01-0.07-0.01-0.1
				c-0.12-0.95-1.71-0.96-1.6,0c0.23,1.88,0.38,3.77,0.45,5.67c-0.79-1.76-2.74-4.04-7.53-5c0,0-0.75,4.1,7.58,7.1
				c0.02,3-0.15,6.02-0.5,9.02c-2.56-6.82-8.07-6.24-8.07-6.24c3.23,6.71,6.84,7.11,7.97,7.05c-0.23,1.8-0.54,3.59-0.9,5.37
				c-0.69-1.7-2.29-3.71-5.9-5.23c0,0-1.56,3.66,5.25,8.07c-0.73,2.94-1.64,5.82-2.72,8.63c-0.35,0.91,1.19,1.3,1.54,0.4
				c1.73-4.47,3.02-9.15,3.84-13.92c1.01,0.33,4.65,0.93,9.67-4.88C984.6,263.28,979.37,261.38,975.05,267.46z"/>
			<path class="st28" d="M986.02,224.06c0,0-4.78-1.93-11.08,4.96c0.01-0.05,0.01-0.1,0.02-0.15c0.15-1.41-2.15-1.9-2.3-0.48
				c-0.3,2.78-0.72,5.55-1.26,8.31c-0.56-2.77-2.6-6.65-9.18-9.46c0,0-2.46,5.69,8.55,12.49c-0.97,4.34-2.23,8.64-3.75,12.86
				c-1.4-10.59-9.56-11.4-9.56-11.4c2.41,10.64,7.48,12.29,9.14,12.54c-0.94,2.52-1.98,5.02-3.1,7.47c-0.42-2.66-2.06-6.03-6.76-9.3
				c0,0-3.47,4.82,4.87,13.21c-2.04,4.02-4.31,7.91-6.82,11.64c-0.81,1.21,1.28,2.24,2.09,1.04c3.99-5.93,7.42-12.31,10.21-18.93
				c1.35,0.78,6.4,2.73,15.59-4.16c0,0-6.9-4.31-15.18,3.18c1.27-3.08,2.39-6.22,3.37-9.39c2.28,0.46,7.04,0.22,13.8-6.25
				c0,0-6.23-2.93-12.87,3.05c1.15-4.17,2.04-8.39,2.67-12.61C977.36,232.58,982.41,231.24,986.02,224.06z"/>
			<path class="st31" d="M938.49,274.86c0,8.1,3.31,15.82,11.26,19.62c8.11,3.87,20.33,4,28.77,0.52
				c8.65-3.57,12.43-11.53,12.43-20.13h-26.23L938.49,274.86z"/>
			<path class="st44" d="M990.94,272.39h-52.45c-1.44,0-2.62,1.11-2.62,2.47c0,1.36,1.18,2.47,2.62,2.47h52.45
				c1.44,0,2.62-1.11,2.62-2.47S992.38,272.39,990.94,272.39z"/>
		</g>
	</g>
</g>
</svg>
